HIERARCHY
ROOT Hips
{
	OFFSET 0.000000 0.000000 0.000000
	CHANNELS 6 Xposition Yposition Zposition Yrotation Xrotation Zrotation
	JOINT Chest
	{
		OFFSET 0.000000 -0.009281 11.569106
		CHANNELS 3 Yrotation Xrotation Zrotation
		JOINT Chest2
		{
			OFFSET -0.000000 0.016865 9.269641
			CHANNELS 3 Yrotation Xrotation Zrotation
			JOINT Chest3
			{
				OFFSET -0.000000 0.000001 8.374491
				CHANNELS 3 Yrotation Xrotation Zrotation
				JOINT Chest4
				{
					OFFSET -0.000000 0.000001 8.374493
					CHANNELS 3 Yrotation Xrotation Zrotation
					JOINT Neck
					{
						OFFSET -0.000000 0.000002 12.152554
						CHANNELS 3 Yrotation Xrotation Zrotation
						JOINT Head
						{
							OFFSET -0.000000 0.040101 7.802319
							CHANNELS 3 Yrotation Xrotation Zrotation
							End Site
							{
								OFFSET -0.000000 0.020947 14.853096
							}
						}
					}
					JOINT RightCollar
					{
						OFFSET 2.894404 0.000001 6.791374
						CHANNELS 3 Yrotation Xrotation Zrotation
						JOINT RightShoulder
						{
							OFFSET 13.574684 0.000001 0.000000
							CHANNELS 3 Yrotation Xrotation Zrotation
							JOINT RightElbow
							{
								OFFSET 23.923903 0.000002 0.000000
								CHANNELS 3 Yrotation Xrotation Zrotation
								JOINT RightWrist
								{
									OFFSET 19.846718 0.012767 0.000000
									CHANNELS 3 Yrotation Xrotation Zrotation
									End Site
									{
										OFFSET 14.973145 0.000001 0.000000
									}
								}
							}
						}
					}
					JOINT LeftCollar
					{
						OFFSET -2.894404 0.000001 6.791374
						CHANNELS 3 Yrotation Xrotation Zrotation
						JOINT LeftShoulder
						{
							OFFSET -13.574684 -0.000001 0.000000
							CHANNELS 3 Yrotation Xrotation Zrotation
							JOINT LeftElbow
							{
								OFFSET -23.923903 -0.000002 0.000000
								CHANNELS 3 Yrotation Xrotation Zrotation
								JOINT LeftWrist
								{
									OFFSET -19.846718 0.012763 0.000000
									CHANNELS 3 Yrotation Xrotation Zrotation
									End Site
									{
										OFFSET -14.973145 -0.000001 0.000000
									}
								}
							}
						}
					}
				}
			}
		}
	}
	JOINT RightHip
	{
		OFFSET 9.469263 0.004643 0.045487
		CHANNELS 3 Yrotation Xrotation Zrotation
		JOINT RightKnee
		{
			OFFSET 0.000000 0.002661 -40.478676
			CHANNELS 3 Yrotation Xrotation Zrotation
			JOINT RightAnkle
			{
				OFFSET 0.000000 0.049106 -35.224068
				CHANNELS 3 Yrotation Xrotation Zrotation
				JOINT RightToe
				{
					OFFSET -0.000001 12.539529 -6.151390
					CHANNELS 3 Yrotation Xrotation Zrotation
					End Site
					{
						OFFSET -0.000001 5.044994 -1.291870
					}
				}
			}
		}
	}
	JOINT LeftHip
	{
		OFFSET -9.469263 0.004641 0.045487
		CHANNELS 3 Yrotation Xrotation Zrotation
		JOINT LeftKnee
		{
			OFFSET 0.000000 0.002661 -40.478676
			CHANNELS 3 Yrotation Xrotation Zrotation
			JOINT LeftAnkle
			{
				OFFSET 0.000000 0.049106 -35.224068
				CHANNELS 3 Yrotation Xrotation Zrotation
				JOINT LeftToe
				{
					OFFSET -0.000001 12.539529 -6.151390
					CHANNELS 3 Yrotation Xrotation Zrotation
					End Site
					{
						OFFSET -0.000001 5.044994 -1.291870
					}
				}
			}
		}
	}
}
MOTION
Frames: 6
Frame Time: 0.016667
-1.854229 -43.891266 83.599136 -3.119944 -1.102486 -115.988633 -1.011902 -3.714360 1.904334 -0.508141 -1.717628 0.890736 -0.508141 -1.717629 0.890734 -0.378573 -1.288966 0.666574 0.832386 -13.562192 -3.179129 0.296362 10.970699 -5.677626 10.657792 6.333035 -1.030614 43.738342 -15.403439 -16.419652 -29.350364 -60.873877 86.543326 -46.048811 42.502345 50.681991 -8.239518 5.643143 -6.515711 -41.400174 -8.847356 21.372172 -6.845770 -64.927730 -56.025125 32.150131 19.510985 -74.303750 -4.064809 -1.114660 -11.834372 4.010911 -12.822535 -15.866637 -2.236727 7.299317 -0.324436 0.542069 1.425918 -0.041709 1.802498 -5.059145 10.963010 -0.683100 -3.634324 11.760921 2.468633 1.172442 7.856152 0.837641 0.123738 -0.105643 
-2.029973 -44.020653 83.572990 -3.350713 -0.959374 -115.824613 -1.228438 -3.768919 1.904792 -0.583259 -1.737773 0.890488 -0.583259 -1.737773 0.890485 -0.434880 -1.304184 0.666156 0.874964 -13.548205 -3.213709 0.362403 10.997413 -5.726291 10.650564 6.347861 -1.149647 43.752959 -15.629472 -16.228417 -29.014831 -60.960968 86.278485 -46.063772 42.326406 50.622944 -8.128647 5.517195 -6.621642 -41.396373 -8.459708 21.525068 -6.209256 -64.990739 -56.681950 32.162415 19.550739 -74.517637 -4.175860 -0.931996 -10.390453 4.021978 -13.347015 -16.751971 -1.680106 7.406851 -1.207602 0.131865 1.237686 -0.044215 1.699474 -5.063780 10.288385 -0.576311 -3.689550 11.518965 2.346106 1.037131 8.375031 0.613364 0.134856 -0.115101 
-2.256773 -44.161114 83.552452 -3.528980 -0.928197 -115.713964 -1.374421 -3.874649 1.981452 -0.619703 -1.771422 0.918503 -0.619703 -1.771422 0.918506 -0.462078 -1.329502 0.687028 0.900090 -13.493668 -3.288621 0.377554 11.097538 -5.859396 10.648980 6.225183 -1.160195 43.805558 -15.668017 -16.147711 -28.912314 -60.811510 86.215354 -46.070948 42.271535 50.619850 -8.022106 5.464405 -6.641996 -41.369097 -8.398629 21.396980 -5.848239 -64.978759 -57.058902 32.174846 19.503672 -74.543025 -4.119210 -0.809535 -9.095568 3.928561 -13.794935 -16.946085 -1.211908 7.512815 -2.243004 -0.156536 1.058602 -0.043842 1.767918 -5.066939 10.028868 -0.518397 -3.701603 10.514816 2.328213 0.829227 9.162774 0.382748 0.114310 -0.101642 
-2.515315 -44.332691 83.542870 -3.551229 -0.954948 -115.632357 -1.414355 -3.934844 2.070239 -0.617395 -1.782124 0.947356 -0.617395 -1.782124 0.947354 -0.460247 -1.337555 0.708659 0.897708 -13.433634 -3.360271 0.341651 11.206752 -5.997675 10.615687 6.071788 -1.072504 43.857679 -15.612163 -16.143171 -29.038351 -60.582712 86.287228 -46.088221 42.294191 50.638961 -8.033383 5.546422 -6.546411 -41.318283 -8.663281 21.182239 -5.866652 -64.896366 -57.071411 32.220253 19.412089 -74.493431 -3.968243 -0.474972 -8.130107 3.953983 -14.465622 -16.197775 -1.063998 7.703613 -3.481414 -0.318875 0.962578 -0.032449 2.060386 -4.971228 9.804439 -0.552590 -3.704154 9.451556 2.274499 0.551069 9.845700 0.208447 0.126178 -0.080439 
-2.797719 -44.513569 83.547005 -3.472671 -0.911279 -115.523538 -1.431994 -3.921765 2.098697 -0.609021 -1.765444 0.949119 -0.609021 -1.765444 0.949119 -0.453988 -1.325033 0.710025 0.880292 -13.387083 -3.392190 0.293790 11.291420 -6.066519 10.559764 6.043331 -0.993484 43.844504 -15.628330 -16.089279 -29.166482 -60.482596 86.324978 -46.097838 42.315631 50.668437 -8.134355 5.659989 -6.489486 -41.262006 -8.858365 21.140716 -6.004230 -64.861430 -56.982769 32.269557 19.373823 -74.484961 -3.835653 0.257956 -7.215778 3.711184 -15.666171 -14.913979 -0.940336 7.953557 -4.381758 -0.269799 0.979889 -0.022863 2.362959 -4.690882 9.335109 -0.602269 -3.781912 8.417314 2.247430 0.222177 10.519395 0.024509 0.163543 -0.061984 
-3.123682 -44.647461 83.564415 -3.376595 -0.785852 -115.317212 -1.468765 -3.858966 2.024509 -0.621260 -1.735703 0.916276 -0.621260 -1.735703 0.916281 -0.463308 -1.302714 0.685394 0.871425 -13.364364 -3.387987 0.277703 11.333327 -6.062846 10.544070 6.085261 -0.992267 43.757040 -15.680120 -15.911802 -29.172728 -60.554736 86.255037 -46.086643 42.299993 50.688664 -8.200104 5.715246 -6.498972 -41.237540 -8.807495 21.273835 -6.074233 -64.941514 -56.962306 32.295836 19.458712 -74.527404 -3.639523 1.081059 -6.090451 2.754995 -17.089459 -12.846798 -0.292228 8.308038 -4.977309 -0.258445 0.969664 -0.020306 2.597202 -4.240085 8.293452 -0.633192 -3.976805 7.570192 2.233458 -0.151534 11.304376 -0.167433 0.226080 -0.057878 
